<svg xmlns="http://www.w3.org/2000/svg" width="340" height="50" viewBox="15 135 340 65" preserveAspectRatio="xMidYMid meet">
  <defs>
    <clipPath id="c0d6659288"><path d="M 22.21875 149 L 30 149 L 30 162 L 22.21875 162 Z M 22.21875 149 " clip-rule="nonzero"/></clipPath>
    <clipPath id="d2e174ebc4"><path d="M 22.21875 165 L 30 165 L 30 185 L 22.21875 185 Z M 22.21875 165 " clip-rule="nonzero"/></clipPath>
    <clipPath id="dfde01ce58"><path d="M 42 138.734375 L 50 138.734375 L 50 164 L 42 164 Z M 42 138.734375 " clip-rule="nonzero"/></clipPath>
    <clipPath id="6aea5f8d28"><path d="M 42 167 L 50 167 L 50 195.734375 L 42 195.734375 Z M 42 167 " clip-rule="nonzero"/></clipPath>
    <clipPath id="42e9bf9cd5"><path d="M 62 149 L 70.21875 149 L 70.21875 169 L 62 169 Z M 62 149 " clip-rule="nonzero"/></clipPath>
    <clipPath id="c01996e8d6"><path d="M 62 172 L 70.21875 172 L 70.21875 185 L 62 185 Z M 62 172 " clip-rule="nonzero"/></clipPath>
    <clipPath id="textClip"><rect x="0" width="260" y="0" height="30"/></clipPath>
  </defs>
  <!-- Logo bars -->
  <g clip-path="url(#c0d6659288)"><path fill="#0087f6" d="M 22.148438 149.53125 L 29.429688 149.53125 L 29.429688 161.832031 L 22.148438 161.832031 Z M 22.148438 149.53125 " fill-opacity="1" fill-rule="nonzero"/></g>
  <g clip-path="url(#d2e174ebc4)"><path fill="#279b48" d="M 22.148438 165.820312 L 29.429688 165.820312 L 29.429688 184.753906 L 22.148438 184.753906 Z M 22.148438 165.820312 " fill-opacity="1" fill-rule="nonzero"/></g>
  <path fill="#0087f6" d="M 32.320312 144.167969 L 39.582031 144.167969 L 39.582031 172.5625 L 32.320312 172.5625 Z M 32.320312 144.167969 " fill-opacity="1" fill-rule="nonzero"/>
  <path fill="#279b48" d="M 32.320312 176.546875 L 39.582031 176.546875 L 39.582031 190.117188 L 32.320312 190.117188 Z M 32.320312 176.546875 " fill-opacity="1" fill-rule="nonzero"/>
  <g clip-path="url(#dfde01ce58)"><path fill="#0087f6" d="M 42.492188 138.804688 L 49.753906 138.804688 L 49.753906 163.621094 L 42.492188 163.621094 Z M 42.492188 138.804688 " fill-opacity="1" fill-rule="nonzero"/></g>
  <g clip-path="url(#6aea5f8d28)"><path fill="#279b48" d="M 42.492188 167.609375 L 49.753906 167.609375 L 49.753906 195.480469 L 42.492188 195.480469 Z M 42.492188 167.609375 " fill-opacity="1" fill-rule="nonzero"/></g>
  <path fill="#0087f6" d="M 52.644531 144.167969 L 59.925781 144.167969 L 59.925781 158.257812 L 52.644531 158.257812 Z M 52.644531 144.167969 " fill-opacity="1" fill-rule="nonzero"/>
  <path fill="#279b48" d="M 52.644531 162.246094 L 59.925781 162.246094 L 59.925781 190.117188 L 52.644531 190.117188 Z M 52.644531 162.246094 " fill-opacity="1" fill-rule="nonzero"/>
  <g clip-path="url(#42e9bf9cd5)"><path fill="#0087f6" d="M 62.832031 149.53125 L 70.113281 149.53125 L 70.113281 168.984375 L 62.832031 168.984375 Z M 62.832031 149.53125 " fill-opacity="1" fill-rule="nonzero"/></g>
  <g clip-path="url(#c01996e8d6)"><path fill="#279b48" d="M 62.832031 172.972656 L 70.113281 172.972656 L 70.113281 184.753906 L 62.832031 184.753906 Z M 62.832031 172.972656 " fill-opacity="1" fill-rule="nonzero"/></g>
  <!-- Text "MARKETVIEW360" - WHITE for dark mode -->
  <g transform="translate(81, 150)">
    <g fill="#ffffff" fill-opacity="1">
      <g transform="translate(1.188336, 22.279892)"><path d="M 5.4375 -14.765625 L 11.21875 -6.890625 L 17.046875 -14.765625 L 19.234375 -14.765625 L 19.234375 0 L 16.953125 0 L 16.953125 -6.1875 C 16.953125 -7.09375 16.96875 -7.953125 17 -8.765625 C 17.039062 -9.585938 17.101562 -10.398438 17.1875 -11.203125 L 11.890625 -4.234375 L 10.5 -4.234375 L 5.25 -11.203125 C 5.332031 -10.390625 5.390625 -9.578125 5.421875 -8.765625 C 5.460938 -7.953125 5.484375 -7.09375 5.484375 -6.1875 L 5.484375 0 L 3.203125 0 L 3.203125 -14.765625 Z M 5.4375 -14.765625 "/></g>
      <g transform="translate(25.158092, 22.279892)"><path d="M 14.78125 0 L 13.203125 -3.546875 L 5.40625 -3.546875 L 3.796875 0 L 1.4375 0 L 8.09375 -14.765625 L 10.65625 -14.765625 L 17.28125 0 Z M 8.15625 -9.625 L 6.390625 -5.734375 L 12.21875 -5.734375 L 10.40625 -9.703125 C 10.21875 -10.148438 10.03125 -10.59375 9.84375 -11.03125 C 9.664062 -11.46875 9.484375 -11.929688 9.296875 -12.421875 C 9.097656 -11.921875 8.90625 -11.441406 8.71875 -10.984375 C 8.539062 -10.523438 8.351562 -10.070312 8.15625 -9.625 Z M 8.15625 -9.625 "/></g>
      <g transform="translate(45.396608, 22.279892)"><path d="M 15.734375 -10.171875 C 15.734375 -9.171875 15.425781 -8.269531 14.8125 -7.46875 C 14.207031 -6.675781 13.429688 -6.113281 12.484375 -5.78125 L 16.5 0.015625 L 13.671875 0 L 9.921875 -5.484375 L 5.484375 -5.484375 L 5.484375 0 L 3.203125 0 L 3.203125 -14.765625 L 10.984375 -14.765625 C 11.816406 -14.765625 12.59375 -14.566406 13.3125 -14.171875 C 14.03125 -13.773438 14.613281 -13.234375 15.0625 -12.546875 C 15.507812 -11.859375 15.734375 -11.066406 15.734375 -10.171875 Z M 10.4375 -12.578125 L 5.484375 -12.578125 L 5.484375 -7.671875 L 10.65625 -7.671875 C 11.15625 -7.671875 11.609375 -7.785156 12.015625 -8.015625 C 12.429688 -8.253906 12.753906 -8.5625 12.984375 -8.9375 C 13.210938 -9.320312 13.328125 -9.734375 13.328125 -10.171875 C 13.328125 -10.628906 13.195312 -11.039062 12.9375 -11.40625 C 12.675781 -11.769531 12.320312 -12.054688 11.875 -12.265625 C 11.4375 -12.472656 10.957031 -12.578125 10.4375 -12.578125 Z M 10.4375 -12.578125 "/></g>
      <g transform="translate(65.845929, 22.279892)"><path d="M 5.484375 0 L 3.203125 0 L 3.203125 -14.765625 L 5.484375 -14.765625 L 5.484375 -7.046875 L 8.90625 -9.890625 L 14.640625 -14.765625 L 17.859375 -14.765625 L 10.6875 -8.78125 L 17.71875 0 L 14.765625 0 L 8.96875 -7.3125 L 5.484375 -4.40625 Z M 5.484375 0 "/></g>
      <g transform="translate(87.391439, 22.279892)"><path d="M 3.203125 -14.765625 L 14.390625 -14.765625 L 14.390625 -12.578125 L 5.484375 -12.578125 L 5.484375 -8.671875 L 13.21875 -8.671875 L 13.21875 -6.46875 L 5.484375 -6.46875 L 5.484375 -2.1875 L 14.390625 -2.1875 L 14.390625 0 L 3.203125 0 Z M 3.203125 -14.765625 "/></g>
      <g transform="translate(106.04893, 22.279892)"><path d="M 6.6875 0 L 6.6875 -12.578125 L 1.625 -12.578125 L 1.625 -14.765625 L 14.171875 -14.765625 L 14.171875 -12.578125 L 8.96875 -12.578125 L 8.96875 0 Z M 6.6875 0 "/></g>
      <g transform="translate(123.378365, 22.279892)"><path d="M 16.859375 -14.765625 L 10.46875 0 L 7.90625 0 L 1.4375 -14.765625 L 4.015625 -14.765625 L 7.8125 -5.90625 C 8.03125 -5.375 8.269531 -4.804688 8.53125 -4.203125 C 8.800781 -3.597656 9.050781 -3.003906 9.28125 -2.421875 C 9.488281 -3.003906 9.71875 -3.59375 9.96875 -4.1875 C 10.226562 -4.78125 10.460938 -5.347656 10.671875 -5.890625 L 14.203125 -14.765625 Z M 16.859375 -14.765625 "/></g>
      <g transform="translate(143.195284, 22.279892)"><path d="M 12.046875 0 L 3.125 0 L 3.125 -2.1875 L 6.4375 -2.1875 L 6.4375 -12.578125 L 3.125 -12.578125 L 3.125 -14.765625 L 12.046875 -14.765625 L 12.046875 -12.578125 L 8.71875 -12.578125 L 8.71875 -2.1875 L 12.046875 -2.1875 Z M 12.046875 0 "/></g>
      <g transform="translate(159.892303, 22.279892)"><path d="M 3.203125 -14.765625 L 14.390625 -14.765625 L 14.390625 -12.578125 L 5.484375 -12.578125 L 5.484375 -8.671875 L 13.21875 -8.671875 L 13.21875 -6.46875 L 5.484375 -6.46875 L 5.484375 -2.1875 L 14.390625 -2.1875 L 14.390625 0 L 3.203125 0 Z M 3.203125 -14.765625 "/></g>
      <g transform="translate(178.549794, 22.279892)"><path d="M 23.375 -14.765625 L 17.78125 0 L 16.203125 0 L 12.234375 -9.265625 L 8.265625 0 L 6.609375 0 L 1.4375 -14.765625 L 3.90625 -14.765625 L 6.921875 -5.890625 C 7.054688 -5.503906 7.179688 -5.109375 7.296875 -4.703125 C 7.421875 -4.296875 7.535156 -3.898438 7.640625 -3.515625 C 7.773438 -3.898438 7.921875 -4.296875 8.078125 -4.703125 C 8.234375 -5.109375 8.394531 -5.507812 8.5625 -5.90625 L 11.265625 -12.21875 L 13.390625 -12.21875 L 16.015625 -5.921875 C 16.179688 -5.515625 16.34375 -5.109375 16.5 -4.703125 C 16.65625 -4.304688 16.796875 -3.925781 16.921875 -3.5625 C 17.035156 -3.945312 17.15625 -4.34375 17.28125 -4.75 C 17.40625 -5.164062 17.546875 -5.585938 17.703125 -6.015625 L 20.921875 -14.765625 Z M 23.375 -14.765625 "/></g>
      <g transform="translate(204.859468, 22.279892)"><path d="M 3.140625 -4.21875 C 3.378906 -3.882812 3.675781 -3.523438 4.03125 -3.140625 C 4.382812 -2.765625 4.800781 -2.445312 5.28125 -2.1875 C 5.769531 -1.925781 6.320312 -1.796875 6.9375 -1.796875 C 7.5 -1.796875 8.050781 -1.890625 8.59375 -2.078125 C 9.144531 -2.265625 9.597656 -2.566406 9.953125 -2.984375 C 10.316406 -3.398438 10.5 -3.945312 10.5 -4.625 C 10.5 -5.226562 10.347656 -5.707031 10.046875 -6.0625 C 9.742188 -6.425781 9.363281 -6.6875 8.90625 -6.84375 C 8.457031 -7.007812 7.992188 -7.09375 7.515625 -7.09375 C 7.054688 -7.09375 6.644531 -7.046875 6.28125 -6.953125 C 5.914062 -6.867188 5.585938 -6.773438 5.296875 -6.671875 L 4.5625 -8.15625 L 9.140625 -12.65625 L 2.1875 -12.65625 L 2.1875 -14.765625 L 12 -14.765625 L 12.421875 -13.515625 L 8.078125 -9.171875 C 8.890625 -9.171875 9.648438 -8.976562 10.359375 -8.59375 C 11.078125 -8.207031 11.648438 -7.679688 12.078125 -7.015625 C 12.503906 -6.359375 12.71875 -5.613281 12.71875 -4.78125 C 12.71875 -3.769531 12.453125 -2.890625 11.921875 -2.140625 C 11.398438 -1.390625 10.695312 -0.804688 9.8125 -0.390625 C 8.9375 0.015625 7.972656 0.21875 6.921875 0.21875 C 6.015625 0.21875 5.21875 0.0820312 4.53125 -0.1875 C 3.851562 -0.46875 3.253906 -0.847656 2.734375 -1.328125 C 2.222656 -1.804688 1.769531 -2.332031 1.375 -2.90625 Z M 3.140625 -4.21875 "/></g>
      <g transform="translate(220.713266, 22.279892)"><path d="M 7.453125 0 C 6.410156 0 5.457031 -0.21875 4.59375 -0.65625 C 3.738281 -1.09375 3.054688 -1.703125 2.546875 -2.484375 C 2.046875 -3.273438 1.796875 -4.179688 1.796875 -5.203125 C 1.796875 -5.953125 1.9375 -6.710938 2.21875 -7.484375 C 2.507812 -8.265625 2.894531 -9.03125 3.375 -9.78125 C 3.851562 -10.53125 4.367188 -11.25 4.921875 -11.9375 L 7.359375 -15.015625 L 9.890625 -15.015625 L 9.984375 -14.8125 L 6.703125 -10.90625 C 6.453125 -10.59375 6.207031 -10.269531 5.96875 -9.9375 C 6.28125 -10.0625 6.613281 -10.15625 6.96875 -10.21875 C 7.332031 -10.28125 7.71875 -10.3125 8.125 -10.3125 C 9.050781 -10.3125 9.894531 -10.097656 10.65625 -9.671875 C 11.425781 -9.242188 12.035156 -8.660156 12.484375 -7.921875 C 12.929688 -7.191406 13.15625 -6.378906 13.15625 -5.484375 C 13.15625 -4.484375 12.921875 -3.566406 12.453125 -2.734375 C 11.992188 -1.910156 11.335938 -1.25 10.484375 -0.75 C 9.640625 -0.25 8.628906 0 7.453125 0 Z M 7.453125 -2.109375 C 8.078125 -2.109375 8.65625 -2.226562 9.1875 -2.46875 C 9.726562 -2.71875 10.160156 -3.070312 10.484375 -3.53125 C 10.804688 -4 10.96875 -4.554688 10.96875 -5.203125 C 10.96875 -5.703125 10.820312 -6.175781 10.53125 -6.625 C 10.25 -7.082031 9.847656 -7.457031 9.328125 -7.75 C 8.804688 -8.050781 8.191406 -8.203125 7.484375 -8.203125 C 6.753906 -8.203125 6.128906 -8.0625 5.609375 -7.78125 C 5.085938 -7.5 4.6875 -7.132812 4.40625 -6.6875 C 4.125 -6.238281 3.984375 -5.753906 3.984375 -5.234375 C 3.984375 -4.679688 4.117188 -4.171875 4.390625 -3.703125 C 4.671875 -3.234375 5.070312 -2.847656 5.59375 -2.546875 C 6.113281 -2.253906 6.734375 -2.109375 7.453125 -2.109375 Z M 7.453125 -2.109375 "/></g>
      <g transform="translate(237.157316, 22.279892)"><path d="M 7.9375 0.21875 C 6.570312 0.21875 5.425781 -0.109375 4.5 -0.765625 C 3.582031 -1.421875 2.882812 -2.316406 2.40625 -3.453125 C 1.9375 -4.597656 1.703125 -5.910156 1.703125 -7.390625 C 1.703125 -8.859375 1.9375 -10.160156 2.40625 -11.296875 C 2.882812 -12.441406 3.582031 -13.34375 4.5 -14 C 5.425781 -14.65625 6.570312 -14.984375 7.9375 -14.984375 C 9.269531 -14.984375 10.390625 -14.65625 11.296875 -14 C 12.203125 -13.34375 12.882812 -12.441406 13.34375 -11.296875 C 13.8125 -10.160156 14.046875 -8.859375 14.046875 -7.390625 C 14.046875 -5.910156 13.8125 -4.597656 13.34375 -3.453125 C 12.882812 -2.316406 12.203125 -1.421875 11.296875 -0.765625 C 10.390625 -0.109375 9.269531 0.21875 7.9375 0.21875 Z M 7.9375 -1.859375 C 9.15625 -1.859375 10.109375 -2.332031 10.796875 -3.28125 C 11.484375 -4.238281 11.828125 -5.609375 11.828125 -7.390625 C 11.828125 -9.160156 11.484375 -10.519531 10.796875 -11.46875 C 10.109375 -12.425781 9.15625 -12.90625 7.9375 -12.90625 C 6.664062 -12.90625 5.675781 -12.425781 4.96875 -11.46875 C 4.257812 -10.519531 3.90625 -9.160156 3.90625 -7.390625 C 3.90625 -5.609375 4.257812 -4.238281 4.96875 -3.28125 C 5.675781 -2.332031 6.664062 -1.859375 7.9375 -1.859375 Z M 7.9375 -1.859375 "/></g>
    </g>
  </g>
</svg>
